<svg xmlns="http://www.w3.org/2000/svg" width="32" height="32" viewBox="0 0 32 32" fill="none">
  <path fill-rule="evenodd" clip-rule="evenodd" d="M1.86719 2.12915L5.84027 7.09551L5.84032 7.09546L8.86498 10.8763L8.86495 10.8764L8.86498 10.8764L8.86495 10.8764L5.36608 22.2477L8.51523 23.5074C9.25807 23.8045 10.1065 23.6303 10.6722 23.0646L14.1133 19.6235C16.465 20.3757 18.1173 25.213 14.7562 28.3542C14.5433 28.3652 14.3289 28.3708 14.1133 28.3708C7.34997 28.3708 1.86719 22.888 1.86719 16.1247C1.86719 13.1798 2.90668 10.4776 4.63877 8.36521L1.86719 2.12915ZM9.01354 4.98769L1.86719 2.12915L10.6144 8.25222V8.25211C13.8474 5.42329 17.8271 4.85063 21.1736 6.11743C19.1783 4.70714 16.7426 3.87856 14.1133 3.87856C12.2934 3.87856 10.5662 4.27556 9.01354 4.98769Z" fill="white"/>
  <path d="M21.2265 15.3864L17.3771 16.2066C17.0604 16.2741 17.0604 16.7259 17.3771 16.7934L21.2265 17.6136C22.0162 17.7819 22.6395 18.388 22.8298 19.1727L23.7084 22.7973C23.7826 23.1031 24.2174 23.1031 24.2916 22.7973L25.1702 19.1727C25.3605 18.388 25.9838 17.7819 26.7735 17.6136L30.6229 16.7934C30.9396 16.7259 30.9396 16.2741 30.6229 16.2066L26.7735 15.3864C25.9838 15.2181 25.3605 14.612 25.1702 13.8273L24.2916 10.2027C24.2174 9.8969 23.7826 9.89691 23.7084 10.2027L22.8298 13.8273C22.6395 14.612 22.0162 15.2181 21.2265 15.3864Z" fill="#2F8AF5"/>
</svg>
