<svg width="32" height="32" viewBox="0 0 32 32" fill="none" xmlns="http://www.w3.org/2000/svg">
<path d="M12 8V6C12 4.89543 12.8954 4 14 4H18C19.1046 4 20 4.89543 20 6V8" stroke="white" stroke-width="2" stroke-linecap="round"/>
<path d="M5.5 23.5L8.04468 20.9553C8.32197 20.678 8.73574 20.5884 9.10291 20.7261L11.8574 21.759C12.2446 21.9042 12.6812 21.7961 12.9559 21.4871L16.4021 17.6101C16.467 17.5371 16.5423 17.474 16.6255 17.4228L23 13.5M23 13.5L19 12.5M23 13.5L22 17.5" stroke="#2F8AF5" stroke-width="2" stroke-linecap="round" stroke-linejoin="round"/>
<rect width="22" height="18" rx="4" transform="matrix(-1 0 0 1 27 8)" stroke="white" stroke-width="2" stroke-linecap="round" stroke-linejoin="round"/>
</svg>
